<svg aria-roledescription="er" role="graphics-document document" viewBox="0 0 574.9069213867188 711" style="max-width: 574.9069213867188px;" xmlns="http://www.w3.org/2000/svg" width="100%" id="export-svg"><style xmlns="http://www.w3.org/1999/xhtml">@import url("https://cdnjs.cloudflare.com/ajax/libs/font-awesome/6.2.0/css/all.min.css"); p {margin: 0;}</style><style>#export-svg{font-family:"trebuchet ms",verdana,arial,sans-serif;font-size:14px;fill:#333;}#export-svg .error-icon{fill:#ffffff;}#export-svg .error-text{fill:#000000;stroke:#000000;}#export-svg .edge-thickness-normal{stroke-width:1px;}#export-svg .edge-thickness-thick{stroke-width:3.5px;}#export-svg .edge-pattern-solid{stroke-dasharray:0;}#export-svg .edge-thickness-invisible{stroke-width:0;fill:none;}#export-svg .edge-pattern-dashed{stroke-dasharray:3;}#export-svg .edge-pattern-dotted{stroke-dasharray:2;}#export-svg .marker{fill:#000000;stroke:#000000;}#export-svg .marker.cross{stroke:#000000;}#export-svg svg{font-family:"trebuchet ms",verdana,arial,sans-serif;font-size:14px;}#export-svg p{margin:0;}#export-svg .entityBox{fill:#ffffff;stroke:#000000;}#export-svg .attributeBoxOdd{fill:#ffffff;stroke:#000000;}#export-svg .attributeBoxEven{fill:#f2f2f2;stroke:#000000;}#export-svg .relationshipLabelBox{fill:#ffffff;opacity:0.7;background-color:#ffffff;}#export-svg .relationshipLabelBox rect{opacity:0.5;}#export-svg .relationshipLine{stroke:#000000;}#export-svg .entityTitleText{text-anchor:middle;font-size:18px;fill:#333;}#export-svg #MD_PARENT_START{fill:#f5f5f5!important;stroke:#000000!important;stroke-width:1;}#export-svg #MD_PARENT_END{fill:#f5f5f5!important;stroke:#000000!important;stroke-width:1;}#export-svg .node .neo-node{stroke:#000000;}#export-svg [data-look="neo"].node rect,#export-svg [data-look="neo"].cluster rect,#export-svg [data-look="neo"].node polygon{stroke:url(#export-svg-gradient);filter:drop-shadow( 0px 1px 2px rgba(0, 0, 0, 0.25));}#export-svg [data-look="neo"].node rect,#export-svg [data-look="neo"].node polygon,#export-svg [data-look="neo"].node path{stroke:url(#export-svg-gradient);filter:drop-shadow( 0px 1px 2px rgba(0, 0, 0, 0.25));}#export-svg [data-look="neo"].node .neo-line path{stroke:hsl(0, 0%, 70%);filter:none;}#export-svg [data-look="neo"].node circle{stroke:url(#export-svg-gradient);filter:drop-shadow( 0px 1px 2px rgba(0, 0, 0, 0.25));}#export-svg [data-look="neo"].node circle .state-start{fill:#000000;}#export-svg [data-look="neo"].statediagram-cluster rect{fill:#ffffff;stroke:url(#export-svg-gradient);stroke-width:1px;}#export-svg [data-look="neo"].icon-shape .icon{fill:url(#export-svg-gradient);filter:drop-shadow( 0px 1px 2px rgba(0, 0, 0, 0.25));}#export-svg [data-look="neo"].icon-shape .icon-neo path{stroke:url(#export-svg-gradient);filter:drop-shadow( 0px 1px 2px rgba(0, 0, 0, 0.25));}#export-svg :root{--mermaid-font-family:"trebuchet ms",verdana,arial,sans-serif;}</style><g/><defs><marker orient="auto" markerHeight="240" markerWidth="190" refY="7" refX="0" id="MD_PARENT_START"><path d="M 18,7 L9,13 L1,7 L9,1 Z"/></marker></defs><defs><marker orient="auto" markerHeight="28" markerWidth="20" refY="7" refX="19" id="MD_PARENT_END"><path d="M 18,7 L9,13 L1,7 L9,1 Z"/></marker></defs><defs><marker orient="auto" markerHeight="18" markerWidth="18" refY="9" refX="0" id="ONLY_ONE_START"><path d="M9,0 L9,18 M15,0 L15,18" fill="none" stroke="gray"/></marker></defs><defs><marker orient="auto" markerHeight="18" markerWidth="18" refY="9" refX="18" id="ONLY_ONE_END"><path d="M3,0 L3,18 M9,0 L9,18" fill="none" stroke="gray"/></marker></defs><defs><marker orient="auto" markerHeight="18" markerWidth="30" refY="9" refX="0" id="ZERO_OR_ONE_START"><circle r="6" cy="9" cx="21" fill="white" stroke="gray"/><path d="M9,0 L9,18" fill="none" stroke="gray"/></marker></defs><defs><marker orient="auto" markerHeight="18" markerWidth="30" refY="9" refX="30" id="ZERO_OR_ONE_END"><circle r="6" cy="9" cx="9" fill="white" stroke="gray"/><path d="M21,0 L21,18" fill="none" stroke="gray"/></marker></defs><defs><marker orient="auto" markerHeight="36" markerWidth="45" refY="18" refX="18" id="ONE_OR_MORE_START"><path d="M0,18 Q 18,0 36,18 Q 18,36 0,18 M42,9 L42,27" fill="none" stroke="gray"/></marker></defs><defs><marker orient="auto" markerHeight="36" markerWidth="45" refY="18" refX="27" id="ONE_OR_MORE_END"><path d="M3,9 L3,27 M9,18 Q27,0 45,18 Q27,36 9,18" fill="none" stroke="gray"/></marker></defs><defs><marker orient="auto" markerHeight="36" markerWidth="57" refY="18" refX="18" id="ZERO_OR_MORE_START"><circle r="6" cy="18" cx="48" fill="white" stroke="gray"/><path d="M0,18 Q18,0 36,18 Q18,36 0,18" fill="none" stroke="gray"/></marker></defs><defs><marker orient="auto" markerHeight="36" markerWidth="57" refY="18" refX="39" id="ZERO_OR_MORE_END"><circle r="6" cy="18" cx="9" fill="white" stroke="gray"/><path d="M21,18 Q39,0 57,18 Q39,36 21,18" fill="none" stroke="gray"/></marker></defs><path marker-start="url(#ONLY_ONE_START)" marker-end="url(#ZERO_OR_MORE_END)" style="stroke: gray; fill: none;" d="M298.051,212L298.051,220.333C298.051,228.667,298.051,245.333,307.68,265.5C317.308,285.667,336.566,309.333,346.195,321.167L355.824,333" class="er relationshipLine"/><path marker-start="url(#ONLY_ONE_START)" marker-end="url(#ZERO_OR_MORE_END)" style="stroke: gray; fill: none;" d="M501.479,170L501.479,185.333C501.479,200.667,501.479,231.333,491.85,258.5C482.221,285.667,462.963,309.333,453.334,321.167L443.705,333" class="er relationshipLine"/><path marker-start="url(#ONLY_ONE_START)" marker-end="url(#ZERO_OR_MORE_END)" style="stroke: gray; fill: none;" d="M79.216,149L79.216,167.833C79.216,186.667,79.216,224.333,79.216,251.5C79.216,278.667,79.216,295.333,79.216,303.667L79.216,312" class="er relationshipLine"/><path marker-start="url(#ONLY_ONE_START)" marker-end="url(#ZERO_OR_MORE_END)" style="stroke: gray; fill: none;" d="M79.216,462L79.216,470.333C79.216,478.667,79.216,495.333,101.353,516.037C123.491,536.741,167.766,561.482,189.904,573.853L212.041,586.223" class="er relationshipLine"/><path marker-start="url(#ONLY_ONE_START)" marker-end="url(#ZERO_OR_MORE_END)" style="stroke: gray; fill: none;" d="M399.765,441L399.765,452.833C399.765,464.667,399.765,488.333,391.348,508.5C382.931,528.667,366.098,545.333,357.681,553.667L349.264,562" class="er relationshipLine"/><g transform="translate(248.05058670043945,20 )" id="entity-User-818c511a-4a32-5484-ba70-875d765a9175"><rect height="192" width="100" y="0" x="0" class="er entityBox"/><text transform="translate(50,12)" style="dominant-baseline: middle; text-anchor: middle; font-size: 12px;" y="0" x="0" id="text-entity-User-818c511a-4a32-5484-ba70-875d765a9175" class="er entityLabel">User</text><rect height="21" width="36.941246032714844" y="24" x="0" class="er attributeBoxOdd"/><text transform="translate(5,34.5)" style="dominant-baseline: middle; font-size: 10.2px;" y="0" x="0" id="text-entity-User-818c511a-4a32-5484-ba70-875d765a9175-attr-1-type" class="er entityLabel">int</text><rect height="21" width="63.058753967285156" y="24" x="36.941246032714844" class="er attributeBoxOdd"/><text transform="translate(41.941246032714844,34.5)" style="dominant-baseline: middle; font-size: 10.2px;" y="0" x="0" id="text-entity-User-818c511a-4a32-5484-ba70-875d765a9175-attr-1-name" class="er entityLabel">id_user</text><rect height="21" width="36.941246032714844" y="45" x="0" class="er attributeBoxEven"/><text transform="translate(5,55.5)" style="dominant-baseline: middle; font-size: 10.2px;" y="0" x="0" id="text-entity-User-818c511a-4a32-5484-ba70-875d765a9175-attr-2-type" class="er entityLabel">string</text><rect height="21" width="63.058753967285156" y="45" x="36.941246032714844" class="er attributeBoxEven"/><text transform="translate(41.941246032714844,55.5)" style="dominant-baseline: middle; font-size: 10.2px;" y="0" x="0" id="text-entity-User-818c511a-4a32-5484-ba70-875d765a9175-attr-2-name" class="er entityLabel">nama_user</text><rect height="21" width="36.941246032714844" y="66" x="0" class="er attributeBoxOdd"/><text transform="translate(5,76.5)" style="dominant-baseline: middle; font-size: 10.2px;" y="0" x="0" id="text-entity-User-818c511a-4a32-5484-ba70-875d765a9175-attr-3-type" class="er entityLabel">string</text><rect height="21" width="63.058753967285156" y="66" x="36.941246032714844" class="er attributeBoxOdd"/><text transform="translate(41.941246032714844,76.5)" style="dominant-baseline: middle; font-size: 10.2px;" y="0" x="0" id="text-entity-User-818c511a-4a32-5484-ba70-875d765a9175-attr-3-name" class="er entityLabel">username</text><rect height="21" width="36.941246032714844" y="87" x="0" class="er attributeBoxEven"/><text transform="translate(5,97.5)" style="dominant-baseline: middle; font-size: 10.2px;" y="0" x="0" id="text-entity-User-818c511a-4a32-5484-ba70-875d765a9175-attr-4-type" class="er entityLabel">string</text><rect height="21" width="63.058753967285156" y="87" x="36.941246032714844" class="er attributeBoxEven"/><text transform="translate(41.941246032714844,97.5)" style="dominant-baseline: middle; font-size: 10.2px;" y="0" x="0" id="text-entity-User-818c511a-4a32-5484-ba70-875d765a9175-attr-4-name" class="er entityLabel">password</text><rect height="21" width="36.941246032714844" y="108" x="0" class="er attributeBoxOdd"/><text transform="translate(5,118.5)" style="dominant-baseline: middle; font-size: 10.2px;" y="0" x="0" id="text-entity-User-818c511a-4a32-5484-ba70-875d765a9175-attr-5-type" class="er entityLabel">enum</text><rect height="21" width="63.058753967285156" y="108" x="36.941246032714844" class="er attributeBoxOdd"/><text transform="translate(41.941246032714844,118.5)" style="dominant-baseline: middle; font-size: 10.2px;" y="0" x="0" id="text-entity-User-818c511a-4a32-5484-ba70-875d765a9175-attr-5-name" class="er entityLabel">user_priv</text><rect height="21" width="36.941246032714844" y="129" x="0" class="er attributeBoxEven"/><text transform="translate(5,139.5)" style="dominant-baseline: middle; font-size: 10.2px;" y="0" x="0" id="text-entity-User-818c511a-4a32-5484-ba70-875d765a9175-attr-6-type" class="er entityLabel">string</text><rect height="21" width="63.058753967285156" y="129" x="36.941246032714844" class="er attributeBoxEven"/><text transform="translate(41.941246032714844,139.5)" style="dominant-baseline: middle; font-size: 10.2px;" y="0" x="0" id="text-entity-User-818c511a-4a32-5484-ba70-875d765a9175-attr-6-name" class="er entityLabel">alamat</text><rect height="21" width="36.941246032714844" y="150" x="0" class="er attributeBoxOdd"/><text transform="translate(5,160.5)" style="dominant-baseline: middle; font-size: 10.2px;" y="0" x="0" id="text-entity-User-818c511a-4a32-5484-ba70-875d765a9175-attr-7-type" class="er entityLabel">string</text><rect height="21" width="63.058753967285156" y="150" x="36.941246032714844" class="er attributeBoxOdd"/><text transform="translate(41.941246032714844,160.5)" style="dominant-baseline: middle; font-size: 10.2px;" y="0" x="0" id="text-entity-User-818c511a-4a32-5484-ba70-875d765a9175-attr-7-name" class="er entityLabel">hp</text><rect height="21" width="36.941246032714844" y="171" x="0" class="er attributeBoxEven"/><text transform="translate(5,181.5)" style="dominant-baseline: middle; font-size: 10.2px;" y="0" x="0" id="text-entity-User-818c511a-4a32-5484-ba70-875d765a9175-attr-8-type" class="er entityLabel">string</text><rect height="21" width="63.058753967285156" y="171" x="36.941246032714844" class="er attributeBoxEven"/><text transform="translate(41.941246032714844,181.5)" style="dominant-baseline: middle; font-size: 10.2px;" y="0" x="0" id="text-entity-User-818c511a-4a32-5484-ba70-875d765a9175-attr-8-name" class="er entityLabel">status</text></g><g transform="translate(448.05058670043945,62 )" id="entity-Pelanggan-54dffef1-12c7-56bd-8392-692c31dfc6bc"><rect height="108" width="106.8563232421875" y="0" x="0" class="er entityBox"/><text transform="translate(53.42816162109375,12)" style="dominant-baseline: middle; text-anchor: middle; font-size: 12px;" y="0" x="0" id="text-entity-Pelanggan-54dffef1-12c7-56bd-8392-692c31dfc6bc" class="er entityLabel">Pelanggan</text><rect height="21" width="35.26939392089844" y="24" x="0" class="er attributeBoxOdd"/><text transform="translate(5,34.5)" style="dominant-baseline: middle; font-size: 10.2px;" y="0" x="0" id="text-entity-Pelanggan-54dffef1-12c7-56bd-8392-692c31dfc6bc-attr-1-type" class="er entityLabel">int</text><rect height="21" width="71.58692932128906" y="24" x="35.26939392089844" class="er attributeBoxOdd"/><text transform="translate(40.26939392089844,34.5)" style="dominant-baseline: middle; font-size: 10.2px;" y="0" x="0" id="text-entity-Pelanggan-54dffef1-12c7-56bd-8392-692c31dfc6bc-attr-1-name" class="er entityLabel">id_pelanggan</text><rect height="21" width="35.26939392089844" y="45" x="0" class="er attributeBoxEven"/><text transform="translate(5,55.5)" style="dominant-baseline: middle; font-size: 10.2px;" y="0" x="0" id="text-entity-Pelanggan-54dffef1-12c7-56bd-8392-692c31dfc6bc-attr-2-type" class="er entityLabel">string</text><rect height="21" width="71.58692932128906" y="45" x="35.26939392089844" class="er attributeBoxEven"/><text transform="translate(40.26939392089844,55.5)" style="dominant-baseline: middle; font-size: 10.2px;" y="0" x="0" id="text-entity-Pelanggan-54dffef1-12c7-56bd-8392-692c31dfc6bc-attr-2-name" class="er entityLabel">nama</text><rect height="21" width="35.26939392089844" y="66" x="0" class="er attributeBoxOdd"/><text transform="translate(5,76.5)" style="dominant-baseline: middle; font-size: 10.2px;" y="0" x="0" id="text-entity-Pelanggan-54dffef1-12c7-56bd-8392-692c31dfc6bc-attr-3-type" class="er entityLabel">string</text><rect height="21" width="71.58692932128906" y="66" x="35.26939392089844" class="er attributeBoxOdd"/><text transform="translate(40.26939392089844,76.5)" style="dominant-baseline: middle; font-size: 10.2px;" y="0" x="0" id="text-entity-Pelanggan-54dffef1-12c7-56bd-8392-692c31dfc6bc-attr-3-name" class="er entityLabel">alamat</text><rect height="21" width="35.26939392089844" y="87" x="0" class="er attributeBoxEven"/><text transform="translate(5,97.5)" style="dominant-baseline: middle; font-size: 10.2px;" y="0" x="0" id="text-entity-Pelanggan-54dffef1-12c7-56bd-8392-692c31dfc6bc-attr-4-type" class="er entityLabel">string</text><rect height="21" width="71.58692932128906" y="87" x="35.26939392089844" class="er attributeBoxEven"/><text transform="translate(40.26939392089844,97.5)" style="dominant-baseline: middle; font-size: 10.2px;" y="0" x="0" id="text-entity-Pelanggan-54dffef1-12c7-56bd-8392-692c31dfc6bc-attr-4-name" class="er entityLabel">hp</text></g><g transform="translate(22.838890075683594,83 )" id="entity-Kategori-1367aefe-f156-5fe8-ac74-50e9ab95682b"><rect height="66" width="112.75376892089844" y="0" x="0" class="er entityBox"/><text transform="translate(56.37688446044922,12)" style="dominant-baseline: middle; text-anchor: middle; font-size: 12px;" y="0" x="0" id="text-entity-Kategori-1367aefe-f156-5fe8-ac74-50e9ab95682b" class="er entityLabel">Kategori</text><rect height="21" width="35.26939392089844" y="24" x="0" class="er attributeBoxOdd"/><text transform="translate(5,34.5)" style="dominant-baseline: middle; font-size: 10.2px;" y="0" x="0" id="text-entity-Kategori-1367aefe-f156-5fe8-ac74-50e9ab95682b-attr-1-type" class="er entityLabel">string</text><rect height="21" width="77.484375" y="24" x="35.26939392089844" class="er attributeBoxOdd"/><text transform="translate(40.26939392089844,34.5)" style="dominant-baseline: middle; font-size: 10.2px;" y="0" x="0" id="text-entity-Kategori-1367aefe-f156-5fe8-ac74-50e9ab95682b-attr-1-name" class="er entityLabel">id_kategori</text><rect height="21" width="35.26939392089844" y="45" x="0" class="er attributeBoxEven"/><text transform="translate(5,55.5)" style="dominant-baseline: middle; font-size: 10.2px;" y="0" x="0" id="text-entity-Kategori-1367aefe-f156-5fe8-ac74-50e9ab95682b-attr-2-type" class="er entityLabel">string</text><rect height="21" width="77.484375" y="45" x="35.26939392089844" class="er attributeBoxEven"/><text transform="translate(40.26939392089844,55.5)" style="dominant-baseline: middle; font-size: 10.2px;" y="0" x="0" id="text-entity-Kategori-1367aefe-f156-5fe8-ac74-50e9ab95682b-attr-2-name" class="er entityLabel">nama_kategori</text></g><g transform="translate(20,312 )" id="entity-Produk-61c9e2b2-4905-5a27-b2f5-0a3c7eebf7f4"><rect height="150" width="118.43154907226562" y="0" x="0" class="er entityBox"/><text transform="translate(59.21577453613281,12)" style="dominant-baseline: middle; text-anchor: middle; font-size: 12px;" y="0" x="0" id="text-entity-Produk-61c9e2b2-4905-5a27-b2f5-0a3c7eebf7f4" class="er entityLabel">Produk</text><rect height="21" width="45.15625" y="24" x="0" class="er attributeBoxOdd"/><text transform="translate(5,34.5)" style="dominant-baseline: middle; font-size: 10.2px;" y="0" x="0" id="text-entity-Produk-61c9e2b2-4905-5a27-b2f5-0a3c7eebf7f4-attr-1-type" class="er entityLabel">int</text><rect height="21" width="73.27529907226562" y="24" x="45.15625" class="er attributeBoxOdd"/><text transform="translate(50.15625,34.5)" style="dominant-baseline: middle; font-size: 10.2px;" y="0" x="0" id="text-entity-Produk-61c9e2b2-4905-5a27-b2f5-0a3c7eebf7f4-attr-1-name" class="er entityLabel">id_produk</text><rect height="21" width="45.15625" y="45" x="0" class="er attributeBoxEven"/><text transform="translate(5,55.5)" style="dominant-baseline: middle; font-size: 10.2px;" y="0" x="0" id="text-entity-Produk-61c9e2b2-4905-5a27-b2f5-0a3c7eebf7f4-attr-2-type" class="er entityLabel">string</text><rect height="21" width="73.27529907226562" y="45" x="45.15625" class="er attributeBoxEven"/><text transform="translate(50.15625,55.5)" style="dominant-baseline: middle; font-size: 10.2px;" y="0" x="0" id="text-entity-Produk-61c9e2b2-4905-5a27-b2f5-0a3c7eebf7f4-attr-2-name" class="er entityLabel">nama_produk</text><rect height="21" width="45.15625" y="66" x="0" class="er attributeBoxOdd"/><text transform="translate(5,76.5)" style="dominant-baseline: middle; font-size: 10.2px;" y="0" x="0" id="text-entity-Produk-61c9e2b2-4905-5a27-b2f5-0a3c7eebf7f4-attr-3-type" class="er entityLabel">decimal</text><rect height="21" width="73.27529907226562" y="66" x="45.15625" class="er attributeBoxOdd"/><text transform="translate(50.15625,76.5)" style="dominant-baseline: middle; font-size: 10.2px;" y="0" x="0" id="text-entity-Produk-61c9e2b2-4905-5a27-b2f5-0a3c7eebf7f4-attr-3-name" class="er entityLabel">harga_beli</text><rect height="21" width="45.15625" y="87" x="0" class="er attributeBoxEven"/><text transform="translate(5,97.5)" style="dominant-baseline: middle; font-size: 10.2px;" y="0" x="0" id="text-entity-Produk-61c9e2b2-4905-5a27-b2f5-0a3c7eebf7f4-attr-4-type" class="er entityLabel">decimal</text><rect height="21" width="73.27529907226562" y="87" x="45.15625" class="er attributeBoxEven"/><text transform="translate(50.15625,97.5)" style="dominant-baseline: middle; font-size: 10.2px;" y="0" x="0" id="text-entity-Produk-61c9e2b2-4905-5a27-b2f5-0a3c7eebf7f4-attr-4-name" class="er entityLabel">harga_jual</text><rect height="21" width="45.15625" y="108" x="0" class="er attributeBoxOdd"/><text transform="translate(5,118.5)" style="dominant-baseline: middle; font-size: 10.2px;" y="0" x="0" id="text-entity-Produk-61c9e2b2-4905-5a27-b2f5-0a3c7eebf7f4-attr-5-type" class="er entityLabel">int</text><rect height="21" width="73.27529907226562" y="108" x="45.15625" class="er attributeBoxOdd"/><text transform="translate(50.15625,118.5)" style="dominant-baseline: middle; font-size: 10.2px;" y="0" x="0" id="text-entity-Produk-61c9e2b2-4905-5a27-b2f5-0a3c7eebf7f4-attr-5-name" class="er entityLabel">stok</text><rect height="21" width="45.15625" y="129" x="0" class="er attributeBoxEven"/><text transform="translate(5,139.5)" style="dominant-baseline: middle; font-size: 10.2px;" y="0" x="0" id="text-entity-Produk-61c9e2b2-4905-5a27-b2f5-0a3c7eebf7f4-attr-6-type" class="er entityLabel">string</text><rect height="21" width="73.27529907226562" y="129" x="45.15625" class="er attributeBoxEven"/><text transform="translate(50.15625,139.5)" style="dominant-baseline: middle; font-size: 10.2px;" y="0" x="0" id="text-entity-Produk-61c9e2b2-4905-5a27-b2f5-0a3c7eebf7f4-attr-6-name" class="er entityLabel">barcode</text></g><g transform="translate(327.6877021789551,333 )" id="entity-Penjualan-5f0106a4-0561-5871-8c92-01f92131d914"><rect height="108" width="144.1539306640625" y="0" x="0" class="er entityBox"/><text transform="translate(72.07696533203125,12)" style="dominant-baseline: middle; text-anchor: middle; font-size: 12px;" y="0" x="0" id="text-entity-Penjualan-5f0106a4-0561-5871-8c92-01f92131d914" class="er entityLabel">Penjualan</text><rect height="21" width="49.44877624511719" y="24" x="0" class="er attributeBoxOdd"/><text transform="translate(5,34.5)" style="dominant-baseline: middle; font-size: 10.2px;" y="0" x="0" id="text-entity-Penjualan-5f0106a4-0561-5871-8c92-01f92131d914-attr-1-type" class="er entityLabel">int</text><rect height="21" width="94.70515441894531" y="24" x="49.44877624511719" class="er attributeBoxOdd"/><text transform="translate(54.44877624511719,34.5)" style="dominant-baseline: middle; font-size: 10.2px;" y="0" x="0" id="text-entity-Penjualan-5f0106a4-0561-5871-8c92-01f92131d914-attr-1-name" class="er entityLabel">id_penjualan</text><rect height="21" width="49.44877624511719" y="45" x="0" class="er attributeBoxEven"/><text transform="translate(5,55.5)" style="dominant-baseline: middle; font-size: 10.2px;" y="0" x="0" id="text-entity-Penjualan-5f0106a4-0561-5871-8c92-01f92131d914-attr-2-type" class="er entityLabel">decimal</text><rect height="21" width="94.70515441894531" y="45" x="49.44877624511719" class="er attributeBoxEven"/><text transform="translate(54.44877624511719,55.5)" style="dominant-baseline: middle; font-size: 10.2px;" y="0" x="0" id="text-entity-Penjualan-5f0106a4-0561-5871-8c92-01f92131d914-attr-2-name" class="er entityLabel">diskon</text><rect height="21" width="49.44877624511719" y="66" x="0" class="er attributeBoxOdd"/><text transform="translate(5,76.5)" style="dominant-baseline: middle; font-size: 10.2px;" y="0" x="0" id="text-entity-Penjualan-5f0106a4-0561-5871-8c92-01f92131d914-attr-3-type" class="er entityLabel">decimal</text><rect height="21" width="94.70515441894531" y="66" x="49.44877624511719" class="er attributeBoxOdd"/><text transform="translate(54.44877624511719,76.5)" style="dominant-baseline: middle; font-size: 10.2px;" y="0" x="0" id="text-entity-Penjualan-5f0106a4-0561-5871-8c92-01f92131d914-attr-3-name" class="er entityLabel">total_harga</text><rect height="21" width="49.44877624511719" y="87" x="0" class="er attributeBoxEven"/><text transform="translate(5,97.5)" style="dominant-baseline: middle; font-size: 10.2px;" y="0" x="0" id="text-entity-Penjualan-5f0106a4-0561-5871-8c92-01f92131d914-attr-4-type" class="er entityLabel">datetime</text><rect height="21" width="94.70515441894531" y="87" x="49.44877624511719" class="er attributeBoxEven"/><text transform="translate(54.44877624511719,97.5)" style="dominant-baseline: middle; font-size: 10.2px;" y="0" x="0" id="text-entity-Penjualan-5f0106a4-0561-5871-8c92-01f92131d914-attr-4-name" class="er entityLabel">tanggal_penjualan</text></g><g transform="translate(212.04133224487305,562 )" id="entity-DetailPenjualan-376efbdf-4c31-504d-8516-7d7bc0e562a4"><rect height="129" width="144.1539306640625" y="0" x="0" class="er entityBox"/><text transform="translate(72.07696533203125,12)" style="dominant-baseline: middle; text-anchor: middle; font-size: 12px;" y="0" x="0" id="text-entity-DetailPenjualan-376efbdf-4c31-504d-8516-7d7bc0e562a4" class="er entityLabel">DetailPenjualan</text><rect height="21" width="49.44877624511719" y="24" x="0" class="er attributeBoxOdd"/><text transform="translate(5,34.5)" style="dominant-baseline: middle; font-size: 10.2px;" y="0" x="0" id="text-entity-DetailPenjualan-376efbdf-4c31-504d-8516-7d7bc0e562a4-attr-1-type" class="er entityLabel">int</text><rect height="21" width="94.70515441894531" y="24" x="49.44877624511719" class="er attributeBoxOdd"/><text transform="translate(54.44877624511719,34.5)" style="dominant-baseline: middle; font-size: 10.2px;" y="0" x="0" id="text-entity-DetailPenjualan-376efbdf-4c31-504d-8516-7d7bc0e562a4-attr-1-name" class="er entityLabel">id</text><rect height="21" width="49.44877624511719" y="45" x="0" class="er attributeBoxEven"/><text transform="translate(5,55.5)" style="dominant-baseline: middle; font-size: 10.2px;" y="0" x="0" id="text-entity-DetailPenjualan-376efbdf-4c31-504d-8516-7d7bc0e562a4-attr-2-type" class="er entityLabel">decimal</text><rect height="21" width="94.70515441894531" y="45" x="49.44877624511719" class="er attributeBoxEven"/><text transform="translate(54.44877624511719,55.5)" style="dominant-baseline: middle; font-size: 10.2px;" y="0" x="0" id="text-entity-DetailPenjualan-376efbdf-4c31-504d-8516-7d7bc0e562a4-attr-2-name" class="er entityLabel">harga_jual</text><rect height="21" width="49.44877624511719" y="66" x="0" class="er attributeBoxOdd"/><text transform="translate(5,76.5)" style="dominant-baseline: middle; font-size: 10.2px;" y="0" x="0" id="text-entity-DetailPenjualan-376efbdf-4c31-504d-8516-7d7bc0e562a4-attr-3-type" class="er entityLabel">int</text><rect height="21" width="94.70515441894531" y="66" x="49.44877624511719" class="er attributeBoxOdd"/><text transform="translate(54.44877624511719,76.5)" style="dominant-baseline: middle; font-size: 10.2px;" y="0" x="0" id="text-entity-DetailPenjualan-376efbdf-4c31-504d-8516-7d7bc0e562a4-attr-3-name" class="er entityLabel">qty</text><rect height="21" width="49.44877624511719" y="87" x="0" class="er attributeBoxEven"/><text transform="translate(5,97.5)" style="dominant-baseline: middle; font-size: 10.2px;" y="0" x="0" id="text-entity-DetailPenjualan-376efbdf-4c31-504d-8516-7d7bc0e562a4-attr-4-type" class="er entityLabel">decimal</text><rect height="21" width="94.70515441894531" y="87" x="49.44877624511719" class="er attributeBoxEven"/><text transform="translate(54.44877624511719,97.5)" style="dominant-baseline: middle; font-size: 10.2px;" y="0" x="0" id="text-entity-DetailPenjualan-376efbdf-4c31-504d-8516-7d7bc0e562a4-attr-4-name" class="er entityLabel">sub_total</text><rect height="21" width="49.44877624511719" y="108" x="0" class="er attributeBoxOdd"/><text transform="translate(5,118.5)" style="dominant-baseline: middle; font-size: 10.2px;" y="0" x="0" id="text-entity-DetailPenjualan-376efbdf-4c31-504d-8516-7d7bc0e562a4-attr-5-type" class="er entityLabel">datetime</text><rect height="21" width="94.70515441894531" y="108" x="49.44877624511719" class="er attributeBoxOdd"/><text transform="translate(54.44877624511719,118.5)" style="dominant-baseline: middle; font-size: 10.2px;" y="0" x="0" id="text-entity-DetailPenjualan-376efbdf-4c31-504d-8516-7d7bc0e562a4-attr-5-name" class="er entityLabel">tanggal_penjualan</text></g><rect height="14" width="39.359375" y="270.8457946777344" x="294.74755859375" class="er relationshipLabelBox"/><text style="text-anchor: middle; dominant-baseline: middle; font-size: 12px;" y="277.8457946777344" x="314.42724609375" id="rel11" class="er relationshipLabel">creates</text><rect height="14" width="34.6875" y="251.35153198242188" x="474.5584411621094" class="er relationshipLabelBox"/><text style="text-anchor: middle; dominant-baseline: middle; font-size: 12px;" y="258.3515319824219" x="491.9021911621094" id="rel12" class="er relationshipLabel">places</text><rect height="14" width="61.375" y="223.5" x="48.52850341796875" class="er relationshipLabelBox"/><text style="text-anchor: middle; dominant-baseline: middle; font-size: 12px;" y="230.5" x="79.21600341796875" id="rel13" class="er relationshipLabel">categorizes</text><rect height="14" width="44.703125" y="530.5087280273438" x="106.92431640625" class="er relationshipLabelBox"/><text style="text-anchor: middle; dominant-baseline: middle; font-size: 12px;" y="537.5087280273438" x="129.27587890625" id="rel14" class="er relationshipLabel">contains</text><rect height="13.999969482421875" width="44.03125" y="501.5206756591797" x="369.32366943359375" class="er relationshipLabelBox"/><text style="text-anchor: middle; dominant-baseline: middle; font-size: 12px;" y="508.5206604003906" x="391.33929443359375" id="rel15" class="er relationshipLabel">includes</text></svg>